<?xml version="1.0" encoding="UTF-8" standalone="no"?>
<!DOCTYPE svg PUBLIC "-//W3C//DTD SVG 1.1//EN"
 "http://www.w3.org/Graphics/SVG/1.1/DTD/svg11.dtd">
<!-- Generated by graphviz version 12.2.1 (20241206.2353)
 -->
<!-- Title: dependency&#45;cruiser output Pages: 1 -->
<svg width="244pt" height="145pt"
 viewBox="0.00 0.00 244.00 145.00" xmlns="http://www.w3.org/2000/svg" xmlns:xlink="http://www.w3.org/1999/xlink">
<g id="graph0" class="graph" transform="scale(1 1) rotate(0) translate(4 141)">
<title>dependency&#45;cruiser output</title>
<polygon fill="white" stroke="none" points="-4,4 -4,-141 240,-141 240,4 -4,4"/>
<g id="clust1" class="cluster">
<title>cluster_src</title>
<path fill="#ffffff" stroke="black" stroke-width="2" d="M20,-8C20,-8 216,-8 216,-8 222,-8 228,-14 228,-20 228,-20 228,-117 228,-117 228,-123 222,-129 216,-129 216,-129 20,-129 20,-129 14,-129 8,-123 8,-117 8,-117 8,-20 8,-20 8,-14 14,-8 20,-8"/>
<text text-anchor="middle" x="118" y="-116.45" font-family="Helvetica,sans-Serif" font-weight="bold" font-size="9.00">src</text>
</g>
<g id="clust2" class="cluster">
<title>cluster_src/ui</title>
<path fill="#ffffff" stroke="black" stroke-width="2" d="M28,-16C28,-16 208,-16 208,-16 214,-16 220,-22 220,-28 220,-28 220,-90 220,-90 220,-96 214,-102 208,-102 208,-102 28,-102 28,-102 22,-102 16,-96 16,-90 16,-90 16,-28 16,-28 16,-22 22,-16 28,-16"/>
<text text-anchor="middle" x="118" y="-89.45" font-family="Helvetica,sans-Serif" font-weight="bold" font-size="9.00">ui</text>
</g>
<!-- src/ui/App.css -->
<g id="node1" class="node">
<title>src/ui/App.css</title>
<g id="a_node1"><a xlink:href="src/ui/App.css" xlink:title="App.css">
<path fill="#ffffcc" stroke="black" d="M205.58,-43.62C205.58,-43.62 164.42,-43.62 164.42,-43.62 161.21,-43.62 158,-40.42 158,-37.21 158,-37.21 158,-30.79 158,-30.79 158,-27.58 161.21,-24.38 164.42,-24.38 164.42,-24.38 205.58,-24.38 205.58,-24.38 208.79,-24.38 212,-27.58 212,-30.79 212,-30.79 212,-37.21 212,-37.21 212,-40.42 208.79,-43.62 205.58,-43.62"/>
<text text-anchor="start" x="168.88" y="-31.07" font-family="Helvetica,sans-Serif" font-size="9.00">App.css</text>
</a>
</g>
</g>
<!-- src/ui/App.tsx -->
<g id="node2" class="node">
<title>src/ui/App.tsx</title>
<g id="a_node2"><a xlink:href="src/ui/App.tsx" xlink:title="App.tsx">
<path fill="#bbfeff" stroke="black" d="M138.58,-43.62C138.58,-43.62 97.42,-43.62 97.42,-43.62 94.21,-43.62 91,-40.42 91,-37.21 91,-37.21 91,-30.79 91,-30.79 91,-27.58 94.21,-24.38 97.42,-24.38 97.42,-24.38 138.58,-24.38 138.58,-24.38 141.79,-24.38 145,-27.58 145,-30.79 145,-30.79 145,-37.21 145,-37.21 145,-40.42 141.79,-43.62 138.58,-43.62"/>
<text text-anchor="start" x="102.62" y="-31.07" font-family="Helvetica,sans-Serif" font-size="9.00">App.tsx</text>
</a>
</g>
</g>
<!-- src/ui/App.tsx&#45;&gt;src/ui/App.css -->
<g id="edge1" class="edge">
<title>src/ui/App.tsx&#45;&gt;src/ui/App.css</title>
<path fill="none" stroke="#000000" stroke-width="2" stroke-opacity="0.200000" d="M145.44,-34C146.58,-34 147.74,-34 148.9,-34"/>
<polygon fill="#000000" fill-opacity="0.200000" stroke="#000000" stroke-width="2" stroke-opacity="0.200000" points="148.77,-36.1 154.77,-34 148.77,-31.9 148.77,-36.1"/>
</g>
<!-- src/ui/index.css -->
<g id="node3" class="node">
<title>src/ui/index.css</title>
<g id="a_node3"><a xlink:href="src/ui/index.css" xlink:title="index.css">
<path fill="#ffffcc" stroke="black" d="M138.58,-74.62C138.58,-74.62 97.42,-74.62 97.42,-74.62 94.21,-74.62 91,-71.42 91,-68.21 91,-68.21 91,-61.79 91,-61.79 91,-58.58 94.21,-55.38 97.42,-55.38 97.42,-55.38 138.58,-55.38 138.58,-55.38 141.79,-55.38 145,-58.58 145,-61.79 145,-61.79 145,-68.21 145,-68.21 145,-71.42 141.79,-74.62 138.58,-74.62"/>
<text text-anchor="start" x="99.25" y="-62.08" font-family="Helvetica,sans-Serif" font-size="9.00">index.css</text>
</a>
</g>
</g>
<!-- src/ui/main.tsx -->
<g id="node4" class="node">
<title>src/ui/main.tsx</title>
<g id="a_node4"><a xlink:href="src/ui/main.tsx" xlink:title="main.tsx">
<path fill="#bbfeff" stroke="black" d="M71.58,-58.62C71.58,-58.62 30.42,-58.62 30.42,-58.62 27.21,-58.62 24,-55.42 24,-52.21 24,-52.21 24,-45.79 24,-45.79 24,-42.58 27.21,-39.38 30.42,-39.38 30.42,-39.38 71.58,-39.38 71.58,-39.38 74.79,-39.38 78,-42.58 78,-45.79 78,-45.79 78,-52.21 78,-52.21 78,-55.42 74.79,-58.62 71.58,-58.62"/>
<text text-anchor="start" x="33.75" y="-46.08" font-family="Helvetica,sans-Serif" font-size="9.00">main.tsx</text>
</a>
</g>
</g>
<!-- src/ui/main.tsx&#45;&gt;src/ui/App.tsx -->
<g id="edge2" class="edge">
<title>src/ui/main.tsx&#45;&gt;src/ui/App.tsx</title>
<path fill="none" stroke="#000000" stroke-width="2" stroke-opacity="0.200000" d="M78.44,-42.9C79.71,-42.6 81,-42.31 82.29,-42.01"/>
<polygon fill="#000000" fill-opacity="0.200000" stroke="#000000" stroke-width="2" stroke-opacity="0.200000" points="82.47,-44.12 87.85,-40.73 81.53,-40.03 82.47,-44.12"/>
</g>
<!-- src/ui/main.tsx&#45;&gt;src/ui/index.css -->
<g id="edge3" class="edge">
<title>src/ui/main.tsx&#45;&gt;src/ui/index.css</title>
<path fill="none" stroke="#000000" stroke-width="2" stroke-opacity="0.200000" d="M78.44,-55.51C79.71,-55.82 81,-56.14 82.29,-56.46"/>
<polygon fill="#000000" fill-opacity="0.200000" stroke="#000000" stroke-width="2" stroke-opacity="0.200000" points="81.53,-58.43 87.86,-57.83 82.53,-54.35 81.53,-58.43"/>
</g>
</g>
</svg>
